<svg xmlns="http://www.w3.org/2000/svg" id="logo" width="76.77" height="102.764" viewBox="0 0 76.77 102.764">
    <defs>
        <style>
            .cls-2{fill:#fff}
            .cls-3{fill:#38291e}
        </style>
    </defs>
    <g id="그룹_50" transform="translate(-695.726 -148.506)">
        <path id="패스_1049" fill="#b10023" fill-rule="evenodd" d="M725.417 148.506h19.238a9.483 9.483 0 0 1 9.62 9.249v58.83a9.489 9.489 0 0 1-9.62 9.3h-19.238a9.487 9.487 0 0 1-9.619-9.3v-58.83a9.481 9.481 0 0 1 9.619-9.249z" transform="translate(.295)"/>
        <g id="그룹_49" transform="translate(695.726 154.005)">
            <g id="그룹_44" transform="translate(26.181)">
                <path id="패스_1050" d="M741.269 163.1a2.606 2.606 0 0 0-2.8-.691 32.253 32.253 0 0 0-3.914-.106h-1.9c-.793.269-3.119 0-4.176.319a6.443 6.443 0 0 0-1.423 5.975c-.64 2.007.523 6.659 1.951 8.245.265.051.688.793 1.8.793.423.158.686.264.634 1.266a44.768 44.768 0 0 0-1.27 4.652 18.047 18.047 0 0 1-1.427 3.012 2.207 2.207 0 0 0 .162 1.739c.313.053.474-.255.684-.255a23.243 23.243 0 0 0 2.747-7.933c.319-.8.052-1.159.69-1.8a2.222 2.222 0 0 1 1.529-.523 3.778 3.778 0 0 1 2.7.523c.684 2.28.786 4.709 1.9 6.823.844 1.059.741 2.853 2.22 3.218.319-.152-.21-.308 0-.525.479-1.69-.8-2.957-1.323-4.331-.423-1.48-.681-3.121-1.16-4.544-.106-.641-.371-1.538.479-1.9.74-.316 1.688-.58 2-1.484.791-.952.689-2.636 1-3.806a8.549 8.549 0 0 0 .473-3.853c-.199-1.645.326-4.135-1.576-4.814zm-11.151.949c1.375.053 2.852-.267 4.438-.157h.109c1.8.1 3.8-.052 5.549.053a3.5 3.5 0 0 0 .365.527 15.374 15.374 0 0 1 .112 2.273c-.74.318-1.535-.107-2.221-.162-.685 0-2.378.162-3.914.32a10.691 10.691 0 0 1-2.588.055c-.635.316-1.372-.1-2.114.264-.369-.319-.948.369-1.266-.159-.481-1.328.685-2.327 1.53-3.017zm9.353 10.941c-1.054 0-1.849.8-2.9.9a6.2 6.2 0 0 1-2.013.216 5.512 5.512 0 0 1-2.059-.216c-1.109.422-1.9-.478-2.643-1.269-.1-.628-.793-1.684-.688-2.376 1.482-.577 3.646-.1 5.39-.265a5.367 5.367 0 0 0 1.109-.213c1.01.531 4.864.05 5.233 0-.371.996.056 3.171-1.429 3.22zm1.22-4.648c-2.008 0-3.914 0-5.923.155-.054 0-.1-.048-.212-.048-.892-.107-4.7.048-5.39.468-.528-.365-.368-1.212-.578-1.844-.108-.9.9-.587 1.371-.791.581.368 2.593.315 4.6.2 2.166-.156 4.337-.472 4.709-.472a.947.947 0 0 1 1.426.268c-.003.684.521 1.422-.003 2.061z" class="cls-2" transform="translate(-721.625 -154.005)"/>
                <path id="패스_1051" d="M747.029 159.606c-.259-.633-8.72-.841-10.517-.58-.9-.631.163-1.906 0-2.692.265-1.375 4.386-.956 5.553-.956 1 .26 2.058 0 3.17.26.422-.205 1.322.06 1.372-.578-.314-.846-1.162-.791-1.847-.954-2.858.108-5.761.058-8.722.163h-1.482a68.763 68.763 0 0 1-9.348-.264c-.586.264-1.7.315-1.59 1.271a.772.772 0 0 0 .313.1 2.322 2.322 0 0 0 1.171.107c2.372.475 6.705-.158 8.982.153a2.561 2.561 0 0 1 .423 1.379c.049.58.049 1.689-.423 2.009-1.532-.159-6.765-.421-8.353.317a7.816 7.816 0 0 0-4.014.37.913.913 0 0 0 .475 1.272c1.319.157 4.809-.587 6.552-.426 1.374-.367 3.961 0 5.812.051a7.114 7.114 0 0 0 1.694-.161c1.535-.257 9.252.269 10.461 0a.738.738 0 0 0 .318-.841z" class="cls-2" transform="translate(-721.625 -154.005)"/>
                <path id="패스_1052" d="M740.85 195.967V191.9a.394.394 0 0 0-.271-.109c-.05-.051-.155-.051-.312-.051v.051c-.155 0-.267.053-.37.053s-.158.056-.216.056c-.051.158-.051.423-.1.741 0 .265-.053.631-.053 1.061a8.791 8.791 0 0 0-.1 1.154c-.05.32-.05 1.109-.1 1.322-.692.423-1.7.583-2.116-1.27 0-.152-.053-.259-.053-.365v-2.067a6.679 6.679 0 0 0-.473-.576h-.848v.949a1.582 1.582 0 0 0-.055.53v.523c0 .109.055.268.055.376a2.029 2.029 0 0 0 .056.525 2.835 2.835 0 0 0 .155.846c.106.316.157.582.265.9.055.264.159.474.209.689a3.464 3.464 0 0 0 .636.419 2.955 2.955 0 0 0 .894.266c.322.052.641.052.9.11a2.555 2.555 0 0 1 .738.1v.416a2.106 2.106 0 0 0 .058.266c.052.11.052.16.107.211.1.107.207.159.315.265l.106-.053.583-.212c.048-.421.106-.791.157-1.212a.735.735 0 0 0 .314.1.929.929 0 0 0 .534 0c.21 0 .418-.051.579-.051a1.275 1.275 0 0 1 .419-.054c.267 0 .536-.214.848-.532a3.886 3.886 0 0 0 .795-1.638 4.781 4.781 0 0 0 .314-2.008 9.425 9.425 0 0 0-.107-1.477c-.1-.106-.154-.211-.207-.264s-.106-.109-.16-.109a.247.247 0 0 0-.264 0c-.055 0-.16.053-.212.053s-.106.056-.159.056c-.055.158-.156.367-.208.576s-.1.373-.164.586c.06.317.11.579.164.9a3.929 3.929 0 0 1-.322 1.108c-.801 1.756-1.538 1.173-2.331.907z" class="cls-2" transform="translate(-721.625 -154.005)"/>
                <path id="패스_1053" d="M731.7 209.87h-.419a.45.45 0 0 0-.214.048.439.439 0 0 0-.21.219c-.052.1-.108.158-.108.261a3.591 3.591 0 0 1-.1.688 14.228 14.228 0 0 1-.739 2.857 7.373 7.373 0 0 1-.743 1.584 9.241 9.241 0 0 1-1.317 1.954 8.414 8.414 0 0 1-1.8 1.319 9.7 9.7 0 0 1-1.111.582 1.125 1.125 0 0 1-.21.264v1.115a5.5 5.5 0 0 0 .53.261.851.851 0 0 0 .473-.106 1.765 1.765 0 0 0 .686-.366c.32-.163.533-.322.791-.478.214-.161.372-.315.531-.426a14.2 14.2 0 0 0 1.322-1.534 12.066 12.066 0 0 0 .848-.952 10.121 10.121 0 0 0 .687-1.049 14.473 14.473 0 0 0 1-2.7c.16-.795.319-1.423.371-1.9v-1.373c-.052-.059-.052-.109-.105-.162s-.106-.058-.163-.106z" class="cls-2" transform="translate(-721.625 -154.005)"/>
                <path id="패스_1054" d="M740.267 208.758c.477 0 .948-.051 1.323-.051a12.548 12.548 0 0 0 1.636-.21c3.116-1.06-.055-1.481-1.531-.954h-2.224c-.9 0-1.586-.05-2.215-.05a14.144 14.144 0 0 0-1.429-.056c0-.1.056-.315.056-.528.049-.265-.111-1.376-.111-1.687a5.464 5.464 0 0 0 .111-.8 1.954 1.954 0 0 0 .049-.479c0-.628.106-1.1-.049-1.366a1.233 1.233 0 0 0-1.059-.636c-.21.048-.477.471-.635.843a4.555 4.555 0 0 0 .05 1.429l.212 3.221c-1.267 0-3.01.266-4.542.21a3.784 3.784 0 0 0-.743-.049 9.639 9.639 0 0 0-2.749-.105c-.845.21-1.532.687.055 1.159.265 0 .529.106 1 .106h6.765c-.05 3.548.055 7.086 0 10.624v.583c0 .158.055.317.055.472.053.113.053.217.1.324a.825.825 0 0 0 .216.155c.051.055.1.055.21.106h.419a1.677 1.677 0 0 0 .529-.261v-12a9.77 9.77 0 0 1 1.323-.051h2.277a5.522 5.522 0 0 0 .901.051z" class="cls-2" transform="translate(-721.625 -154.005)"/>
                <path id="패스_1055" d="M726.366 203.846a2.4 2.4 0 0 0 1.214-.315c.32-.113.58-.165.846-.264v-.058a12.485 12.485 0 0 0 1.483-.578 10.261 10.261 0 0 1 1.793-.687 14.685 14.685 0 0 1 3.385-1.325c.9-.1 2.8.844 3.6 1.214.531.27 1.056.53 1.584.8.74.315 1.428.687 2.167 1.058a4.2 4.2 0 0 0 1.267.257 7.11 7.11 0 0 0 1.109-.05c0-1.846-.05-1.265-2.164-2.11a24.8 24.8 0 0 0-2.379-1.112.389.389 0 0 0-.267-.107q-1.419-.554-2.531-.953c-.747-.316-1.9-.581-2.382-.845-.531.163-.9.371-1.744.692a28.114 28.114 0 0 0-2.7 1.106c-.21.107-.477.212-.739.316-.8.269-1.483.58-2.113.8a20.017 20.017 0 0 1-2.012.682 6 6 0 0 0-.317.583c-.049.786-.366.685.9.896z" class="cls-2" transform="translate(-721.625 -154.005)"/>
                <path id="패스_1056" d="M744.336 219.646a4.9 4.9 0 0 1-3.17-3.119 9.293 9.293 0 0 0-.742-1.375c-.05-.1-.1-.207-.157-.313a12.493 12.493 0 0 1-.637-1.59c-.208-.735-.365-1.316-.526-1.841-.1-.536-.211-.954-.268-1.271a1.062 1.062 0 0 1-.211-.162 2.8 2.8 0 0 0-.261-.105h-.424c-.1.267-.261.528-.373.793v.847a12.657 12.657 0 0 1 .318 1.319c.157.58.479 1.322.74 2.062a14.086 14.086 0 0 0 .747 1.8c.309.533.579 1.006.842 1.375l.053.05c.262.268.531.584.849.957a5.484 5.484 0 0 0 1.264 1.159 3.25 3.25 0 0 0 1.266.743 2.08 2.08 0 0 0 .954.051.2.2 0 0 1 .055-.16c0-.051.048-.1.048-.208.057-.051.107-.1.161-.1.053-.058.053-.058.108-.058a1.666 1.666 0 0 0-.636-.854z" class="cls-2" transform="translate(-721.625 -154.005)"/>
                <path id="패스_1057" d="M726.576 192.643a2.037 2.037 0 0 0-.261-.741c-.052 0-.052-.056-.1-.056s-.162-.053-.213-.053c-.107-.051-.164-.051-.214 0-.053 0-.1.053-.16.109 0 .1-.052.315-.052.469a3.151 3.151 0 0 0-.048.693 2.994 2.994 0 0 0-.057.686v1.428a8.868 8.868 0 0 0 .686 1.425 2.869 2.869 0 0 0 1.108 1 2.8 2.8 0 0 0 1.219.268 5.017 5.017 0 0 1 .842-.054l.163 1.477h.474c.159-.053.212-.106.319-.106a.667.667 0 0 0 .213-.159v-.629c.049-.106.049-.265.1-.369 0-.11.052-.161.052-.215a3.007 3.007 0 0 1 .74-.053 4.628 4.628 0 0 0 1.057-.161 2.989 2.989 0 0 0 1.057-.581 7.179 7.179 0 0 0 .845-1.006v-2.007a6.966 6.966 0 0 0-.053-1.1 3.287 3.287 0 0 0-.157-.742 1.365 1.365 0 0 0-.157-.264h-.479a1.336 1.336 0 0 0-.318.264v2.379c-.214.313-.372.633-.528.9-1.059 1.32-.9.261-2.008.315v-.9a8.259 8.259 0 0 1-.052-1.154c-.056-.43-.056-.8-.1-1.061v-.745a.557.557 0 0 0-.32-.109.4.4 0 0 0-.262-.051s-.055 0-.055.051a1.877 1.877 0 0 0-.317.053c-.1 0-.157.056-.215.056a3.763 3.763 0 0 1-.049.686 6.211 6.211 0 0 1-.054.948c0 .321-.053.636-.053.9v.742c.053.159.107.366.156.58-1.215.637-1.8.689-2.321-.953a3.631 3.631 0 0 1-.321-1.055 7.279 7.279 0 0 0-.107-1.105z" class="cls-2" transform="translate(-721.625 -154.005)"/>
            </g>
            <g id="그룹_48" transform="translate(0 78.736)">
                <g id="그룹_47" transform="translate(14.613 3.551)">
                    <g id="그룹_46">
                        <g id="그룹_45">
                            <path id="패스_1058" d="M715.959 237.3a4.275 4.275 0 0 0-1.629-.308 4.512 4.512 0 0 0-3.222 1.25 4.093 4.093 0 0 0-1.323 3.1 4.14 4.14 0 0 0 1.277 3.126 4.454 4.454 0 0 0 3.212 1.222 4.18 4.18 0 0 0 3.091-1.306 4.658 4.658 0 0 0 .968-1.455 4.311 4.311 0 0 0 .336-1.68 4.178 4.178 0 0 0-1.342-3.023 4.109 4.109 0 0 0-1.368-.926zm-1.778 8.016a2.156 2.156 0 0 1-1.918-1.026 5.319 5.319 0 0 1-.671-2.912 5.2 5.2 0 0 1 .726-2.94 2.178 2.178 0 0 1 1.863-1.074 2.272 2.272 0 0 1 1.974 1.018 5.084 5.084 0 0 1 .707 2.921q0 4.01-2.681 4.011z" class="cls-3" transform="translate(-709.785 -235.55)"/>
                            <path id="패스_1059" d="M729.385 245.017a2.9 2.9 0 0 1-.531-.15.654.654 0 0 1-.381-.345 2.591 2.591 0 0 1-.065-.716v-4.339a2.345 2.345 0 0 0-.708-1.844 2.982 2.982 0 0 0-2.048-.633 3.437 3.437 0 0 0-3.073 1.769q-.037-.484-.093-1.155c-.037-.446-.149-.67-.335-.67a4.266 4.266 0 0 0-.568.186 8.368 8.368 0 0 1-1.2.326c-.46.093-.689.19-.689.289s.123.146.372.177a1.734 1.734 0 0 1 .521.121.709.709 0 0 1 .364.428 3.357 3.357 0 0 1 .084.876v4.469a2.4 2.4 0 0 1-.075.716.623.623 0 0 1-.373.345 2.346 2.346 0 0 1-.521.15c-.249.048-.372.123-.372.222 0 .137.092.205.279.205.3-.025.57-.049.819-.074s.6-.038 1.062-.038q.186 0 .986.057t.876.055c.2 0 .3-.055.3-.168s-.121-.211-.363-.259a2.848 2.848 0 0 1-.531-.15.654.654 0 0 1-.381-.345 2.58 2.58 0 0 1-.066-.716v-3.52a2.756 2.756 0 0 1 .689-1.918 2.155 2.155 0 0 1 1.657-.764q1.749 0 1.751 1.974v4.228a2.436 2.436 0 0 1-.074.716.628.628 0 0 1-.373.345 2.364 2.364 0 0 1-.521.15c-.248.048-.372.123-.372.222 0 .137.1.205.3.205.3-.025.568-.049.81-.074s.593-.038 1.053-.038q.167 0 .987.057t.894.055c.185 0 .278-.055.278-.168s-.127-.211-.369-.259z" class="cls-3" transform="translate(-709.785 -235.55)"/>
                            <path id="패스_1060" d="M771.774 244.531a1 1 0 0 0-.307.187.794.794 0 0 1-.456.186c-.41 0-.615-.335-.615-1.008v-4.741q0-2.146-3.2-2.146a5.171 5.171 0 0 0-2.365.447q-.858.446-.857 1.1c0 .459.216.689.652.689a.677.677 0 0 0 .615-.261 2.47 2.47 0 0 0 .186-.708q.109-.894 1.6-.894 1.786 0 1.788 1.458v1.479q-5.141 1.871-5.14 3.666a1.584 1.584 0 0 0 .512 1.244 2.007 2.007 0 0 0 1.388.458 4.46 4.46 0 0 0 3.184-1.322 1.624 1.624 0 0 0 1.638 1.322 1.735 1.735 0 0 0 1.071-.359q.476-.36.475-.625a.15.15 0 0 0-.169-.172zm-2.96-1.187a1.42 1.42 0 0 1-.7 1.128 2.457 2.457 0 0 1-1.463.507 1.157 1.157 0 0 1-.912-.376 1.464 1.464 0 0 1-.336-1.015q0-1.54 3.409-2.874z" class="cls-3" transform="translate(-709.785 -235.55)"/>
                            <path id="패스_1061" d="M739.263 236.1l-.833-.548q-.369.306-.7.537c-.22.155-.447.3-.678.432s-.487.271-.744.39l-.025.011a2.034 2.034 0 0 1-.954.127c-.065-.011-.133-.021-.2-.028a4.224 4.224 0 0 0-.5-.028 3.671 3.671 0 0 0-2.5.858 2.747 2.747 0 0 0-.987 2.162 2.635 2.635 0 0 0 .54 1.641 3.239 3.239 0 0 0 1.51 1.063q-1.734.334-1.732 1.673a1.364 1.364 0 0 0 .782 1.31 5.4 5.4 0 0 0 2.365.4 6.007 6.007 0 0 1 2.476.363 1.456 1.456 0 0 1 .727 1.444 1.894 1.894 0 0 1-.745 1.582 3.334 3.334 0 0 1-2.086.578 3.893 3.893 0 0 1-2.178-.522 1.6 1.6 0 0 1-.783-1.4 1.785 1.785 0 0 1 .243-.987 1.493 1.493 0 0 1 .577-.54c0-.173-.212-.261-.633-.261a1.29 1.29 0 0 0-.969.467 1.543 1.543 0 0 0-.428 1.08 2.2 2.2 0 0 0 1.089 1.889 5.09 5.09 0 0 0 2.9.736 5.01 5.01 0 0 0 3.119-.866 2.811 2.811 0 0 0 1.126-2.355 2.509 2.509 0 0 0-.986-2.226 5.67 5.67 0 0 0-3.148-.679q-2.551 0-2.55-.607a.682.682 0 0 1 .558-.662 5.962 5.962 0 0 1 1.732-.184 3.779 3.779 0 0 0 2.551-.748 2.68 2.68 0 0 0 .857-2.131 3.182 3.182 0 0 0-.649-1.866 2.29 2.29 0 0 0-.334-.36 3.653 3.653 0 0 0-.79-.506c.086-.019.169-.038.246-.057.275-.069.531-.136.77-.207s.491-.15.737-.242.523-.2.832-.337l.284-.041c.141-.022.222-.068.243-.137s-.027-.142-.132-.218zm-3.313 5.808a1.649 1.649 0 0 1-1.4.671 1.568 1.568 0 0 1-1.351-.7 3.29 3.29 0 0 1-.493-1.927 3.135 3.135 0 0 1 .513-1.881 1.54 1.54 0 0 1 1.294-.708 1.683 1.683 0 0 1 1.424.68 3.935 3.935 0 0 1 .01 3.864z" class="cls-3" transform="translate(-709.785 -235.55)"/>
                        </g>
                    </g>
                    <path id="패스_1062" d="M750.715 244.05l-.058.067a3.143 3.143 0 0 1-2.289.99 2.437 2.437 0 0 1-1.962-.968 4.429 4.429 0 0 1-.745-2.745 5.124 5.124 0 0 1 .727-2.949 2.264 2.264 0 0 1 1.955-1.046 1.357 1.357 0 0 1 .857.205 2.087 2.087 0 0 1 .372.671.767.767 0 0 0 .745.54.527.527 0 0 0 .6-.6 1.025 1.025 0 0 0-.652-.875 3.631 3.631 0 0 0-1.732-.354 4.6 4.6 0 0 0-3.222 1.138 4.293 4.293 0 0 0-1.507 3.3 4.2 4.2 0 0 0 1.135 3.134 4.288 4.288 0 0 0 3.147 1.12c.143 0 .279-.005.411-.013a2.491 2.491 0 0 0 2.421-1.553l-.128-.156c-.028.039-.052.065-.075.094z" class="cls-3" transform="translate(-709.785 -235.55)"/>
                </g>
                <path id="패스_1063" d="M762.026 245.011a2.786 2.786 0 0 1-.532-.148.663.663 0 0 1-.38-.344 2.6 2.6 0 0 1-.066-.717v-4.337a2.3 2.3 0 0 0-.7-1.824 3.049 3.049 0 0 0-2.064-.614 3.424 3.424 0 0 0-2.989 1.545V232.3c0-.2-.068-.3-.2-.3q-.445.113-.889.205c-.13.027-.281.056-.448.086l-1.549.247c-.005 0-.1.022-.045.084l.358.386c.785-.1 1.026.211 1.1.442a3.355 3.355 0 0 1 .038.561v9.789a2.453 2.453 0 0 1-.074.717.627.627 0 0 1-.373.344 2.263 2.263 0 0 1-.521.148c-.249.05-.373.125-.373.224 0 .137.1.2.3.2q.447-.034.809-.071c.243-.023.593-.036 1.052-.036.112 0 .441.019.988.054s.844.053.894.053c.186 0 .279-.055.279-.167s-.121-.211-.363-.261a2.716 2.716 0 0 1-.53-.148.661.661 0 0 1-.383-.344 2.649 2.649 0 0 1-.065-.717v-3.517a2.729 2.729 0 0 1 .7-1.917 2.182 2.182 0 0 1 1.667-.764q1.749 0 1.75 1.973v4.229a2.369 2.369 0 0 1-.076.717.623.623 0 0 1-.371.344 2.276 2.276 0 0 1-.522.148q-.372.075-.372.224c0 .137.093.2.279.2q.447-.034.819-.071c.249-.023.6-.036 1.062-.036.124 0 .453.019.988.054s.825.053.874.053c.2 0 .3-.055.3-.167s-.13-.205-.372-.255z" class="cls-3" transform="translate(-695.172 -231.999)"/>
                <path id="패스_1064" d="M708.576 240.156q-.168 0-2.161.111c-.5 0-.922-.012-1.275-.037s-.643-.049-.866-.074c-.286 0-.428.069-.428.2q0 .166.474.25a4.674 4.674 0 0 1 .569.121c.434.161.651.63.651 1.411a3.058 3.058 0 0 1-.782 2.318 3.474 3.474 0 0 1-2.458.742 3.686 3.686 0 0 1-3.138-1.553 7.228 7.228 0 0 1-1.145-4.359 7.906 7.906 0 0 1 1.164-4.7A3.969 3.969 0 0 1 702.6 233a3.509 3.509 0 0 1 3.538 2.608 3.6 3.6 0 0 1 .168.549c.049.218.118.326.2.326.111 0 .167-.074.167-.223l.081-1.976.064-1.393-.352-.111a1.449 1.449 0 0 1-.216.665.3.3 0 0 1-.339.052q-.773-.287-1.528-.589a7.186 7.186 0 0 0-2.067-.28 6.276 6.276 0 0 0-4.758 1.925 6.938 6.938 0 0 0-1.835 4.992 5.9 5.9 0 0 0 1.676 4.333 6.041 6.041 0 0 0 4.507 1.8 6.563 6.563 0 0 0 2.514-.5q.875-.423 1.75-.865a2.927 2.927 0 0 1 .643-.2 4.069 4.069 0 0 1 .791-.073q-.055-.429-.074-.708t-.019-.782v-.205a4.634 4.634 0 0 1 .083-1.034.78.78 0 0 1 .336-.484 2.154 2.154 0 0 1 .624-.251c.248-.062.373-.143.373-.242.003-.116-.116-.178-.351-.178z" class="cls-3" transform="translate(-695.726 -231.999)"/>
            </g>
        </g>
    </g>
</svg>
